<?xml version="1.0" encoding="utf-8"?>
<!-- Generator: Adobe Illustrator 20.0.0, SVG Export Plug-In . SVG Version: 6.00 Build 0)  -->
<svg version="1.1" id="ALL" xmlns="http://www.w3.org/2000/svg" xmlns:xlink="http://www.w3.org/1999/xlink" x="0px" y="0px"
	 viewBox="0 0 1200 700" style="enable-background:new 0 0 1200 700;" xml:space="preserve">
<style type="text/css">
	.st0{display:none;}
	.st1{display:inline;fill:#FF00FF;}
	.st2{fill:#FFFFFF;}
	.st3{fill:#58B5C2;}
	.st4{fill:#FAD037;}
	.st5{fill:#FF601C;}
</style>
<g>
	<g>
		<g class="st0">
			<rect x="271.2" y="269.8" class="st1" width="10" height="77.9"/>
			<rect x="281.2" y="269.8" class="st1" width="10" height="77.9"/>
			<rect x="291.2" y="269.8" class="st1" width="10" height="77.9"/>
			<rect x="361.6" y="269.8" class="st1" width="10" height="77.9"/>
			<rect x="371.6" y="269.8" class="st1" width="10" height="77.9"/>
			<rect x="381.1" y="269.8" class="st1" width="10" height="77.9"/>
			<rect x="521.7" y="269.8" class="st1" width="10" height="6"/>
			<rect x="521.8" y="341.6" class="st1" width="10" height="6"/>
			<rect x="489.8" y="341.6" class="st1" width="10" height="6"/>
			<rect x="489.8" y="269.8" class="st1" width="10" height="6"/>
			<rect x="531.7" y="269.8" class="st1" width="10" height="13"/>
			<rect x="531.7" y="334.6" class="st1" width="10" height="13"/>
			<rect x="556.5" y="269.8" class="st1" width="10" height="77.9"/>
			<rect x="571.3" y="269.8" class="st1" width="10" height="77.9"/>
			<rect x="561.5" y="269.8" class="st1" width="10" height="77.9"/>
			<rect x="581.2" y="269.8" class="st1" width="10" height="77.9"/>
			<rect x="591" y="269.8" class="st1" width="10" height="77.9"/>
			<rect x="601" y="269.8" class="st1" width="10" height="77.9"/>
			<rect x="621.1" y="269.7" class="st1" width="10" height="77.9"/>
			<rect x="611.1" y="269.7" class="st1" width="10" height="77.9"/>
			<rect x="631.1" y="269.8" class="st1" width="10" height="77.9"/>
			<rect x="651.2" y="269.8" class="st1" width="10" height="77.9"/>
			<rect x="641.1" y="269.8" class="st1" width="10" height="77.9"/>
			<rect x="661.2" y="269.8" class="st1" width="10" height="77.9"/>
			<rect x="671.2" y="269.8" class="st1" width="10" height="77.9"/>
			<rect x="691.2" y="269.8" class="st1" width="10" height="77.9"/>
			<rect x="701.1" y="269.8" class="st1" width="10" height="77.9"/>
			<rect x="711.1" y="269.8" class="st1" width="10" height="77.9"/>
			<rect x="721.1" y="269.8" class="st1" width="10" height="77.9"/>
			<rect x="731.1" y="269.8" class="st1" width="10" height="77.9"/>
			<rect x="741.1" y="269.8" class="st1" width="10" height="77.9"/>
			<rect x="751.1" y="269.8" class="st1" width="10" height="77.9"/>
			<rect x="781.1" y="269.8" class="st1" width="10" height="77.9"/>
			<rect x="771.2" y="269.8" class="st1" width="10" height="77.9"/>
			<rect x="761.1" y="269.8" class="st1" width="10" height="77.9"/>
			<rect x="791.1" y="330.6" class="st1" width="10" height="17.1"/>
			<rect x="801.1" y="340.6" class="st1" width="10" height="7.1"/>
			<rect x="840.1" y="269.9" class="st1" width="10" height="77.8"/>
			<rect x="850.1" y="269.8" class="st1" width="10" height="77.9"/>
			<rect x="910.2" y="269.8" class="st1" width="10" height="5.3"/>
			<rect x="910.2" y="342.4" class="st1" width="10" height="5.3"/>
			<rect x="920.2" y="269.8" class="st1" width="10" height="77.9"/>
			<rect x="949.7" y="269.8" class="st1" width="10" height="77.9"/>
			<rect x="939.7" y="269.8" class="st1" width="10" height="77.9"/>
			<rect x="930.2" y="269.8" class="st1" width="10" height="77.9"/>
			<rect x="860.1" y="269.8" class="st1" width="10" height="77.9"/>
			<rect x="870.1" y="269.8" class="st1" width="10" height="77.9"/>
			<rect x="830.1" y="339" class="st1" width="10" height="8.7"/>
			<rect x="681.1" y="269.8" class="st1" width="10" height="77.9"/>
			<rect x="541.7" y="269.8" class="st1" width="10" height="77.9"/>
			<rect x="551.5" y="269.8" class="st1" width="10" height="77.9"/>
			<rect x="481.2" y="269.8" class="st1" width="10" height="12.5"/>
			<rect x="481.2" y="334.3" class="st1" width="10" height="13.4"/>
			<rect x="451.2" y="269.8" class="st1" width="10" height="77.9"/>
			<rect x="461.2" y="269.8" class="st1" width="10" height="77.9"/>
			<rect x="471.2" y="269.8" class="st1" width="10" height="77.9"/>
		</g>
		<path class="st2" d="M248.9,349.1h-5.3c-1.7,0-2.3-0.6-2.3-2.3V271c0-1.7,0.6-2.3,2.3-2.3h5.3c1.7,0,2.3,0.6,2.3,2.3v75.8
			C251.2,348.5,250.6,349.1,248.9,349.1z"/>
		<path class="st2" d="M289.6,270.1l41.2,57.9c0.6,0.8,1.3,0.5,1.3-0.2V271c0-1.7,0.6-2.3,2.3-2.3h5.3c1.7,0,2.3,0.6,2.3,2.3v75.8
			c0,1.7-0.6,2.3-2.3,2.3h-3.9c-1.3,0-1.5-0.5-2.2-1.4l-41.2-57.9c-0.6-0.8-1.3-0.5-1.3,0.2v56.7c0,1.7-0.6,2.3-2.3,2.3h-5.3
			c-1.7,0-2.3-0.6-2.3-2.3V271c0-1.7,0.6-2.3,2.3-2.3h3.9C288.6,268.7,288.9,269.2,289.6,270.1z"/>
		<path class="st2" d="M379.5,270.1l41.2,57.9c0.6,0.8,1.3,0.5,1.3-0.2V271c0-1.7,0.6-2.3,2.3-2.3h5.3c1.7,0,2.3,0.6,2.3,2.3v75.8
			c0,1.7-0.6,2.3-2.3,2.3h-3.9c-1.3,0-1.5-0.5-2.2-1.4l-41.2-57.9c-0.6-0.8-1.3-0.5-1.3,0.2v56.7c0,1.7-0.6,2.3-2.3,2.3h-5.3
			c-1.7,0-2.3-0.6-2.3-2.3V271c0-1.7,0.6-2.3,2.3-2.3h3.9C378.5,268.7,378.8,269.2,379.5,270.1z"/>
		<path class="st3" d="M487.6,268.7c22.1,0,40.2,18.1,40.2,40.2c0,22.1-18.1,40.2-40.2,40.2c-22.1,0-40.2-18.1-40.2-40.2
			C447.4,286.8,465.5,268.7,487.6,268.7z M487.6,340c17.1,0,30.4-14,30.4-31.1c0-17.1-13.3-31.1-30.4-31.1s-30.4,14-30.4,31.1
			C457.2,326,470.5,340,487.6,340z"/>
		<path class="st2" d="M693.2,268.7h49.8c1.7,0,2.3,0.6,2.3,2.3v4.6c0,1.7-0.6,2.3-2.3,2.3h-17.7c-2.3,0-2.3,0-2.3,2.3v66.6
			c0,1.7-0.6,2.3-2.3,2.3h-5.3c-1.7,0-2.3-0.6-2.3-2.3v-66.6c0-2.3,0-2.3-2.3-2.3h-17.7c-1.7,0-2.3-0.6-2.3-2.3V271
			C690.9,269.3,691.5,268.7,693.2,268.7z"/>
		<path class="st2" d="M758.3,313.8v-42.8c0-1.7,0.6-2.3,2.3-2.3h5.3c1.7,0,2.3,0.6,2.3,2.3v43.8c0,19.2,9.8,25.2,20.6,25.2
			s20.6-6,20.6-25.2v-43.8c0-1.7,0.6-2.3,2.3-2.3h5.3c1.7,0,2.3,0.6,2.3,2.3v42.8c0,24.5-12.8,35.3-30.5,35.3
			S758.3,338.3,758.3,313.8z"/>
		<path class="st2" d="M841.3,349.1c-1.7,0-2.3-0.6-2.3-2.3V271c0-1.7,0.6-2.3,2.3-2.3h22.9c17.7,0,26.1,8,26.1,21.1
			c0,6.9-2.4,12.4-7.2,16.1c6.5,4,9.9,10.7,9.9,19.5c0,15-9.4,23.7-27.7,23.7H841.3z M851.2,301.8h15.5c10.9,0,13.9-6.7,13.9-11.9
			c0-5.3-3-11.9-13.9-11.9h-15.5c-2.3,0-2.3,0-2.3,2.3v19.3C848.9,301.8,848.9,301.8,851.2,301.8z M848.9,337.6c0,2.3,0,2.3,2.3,2.3
			h14.7c13.1,0,17.3-6.5,17.3-14.5c0-7.9-4.2-14.5-17.3-14.5h-14.7c-2.3,0-2.3,0-2.3,2.3V337.6z"/>
		<path class="st2" d="M918.1,337.6c0,2.3,0,2.3,2.3,2.3h33.3c1.7,0,2.3,0.6,2.3,2.3v4.6c0,1.7-0.6,2.3-2.3,2.3h-43.2
			c-1.7,0-2.3-0.6-2.3-2.3V271c0-1.7,0.6-2.3,2.3-2.3h43.2c1.7,0,2.3,0.6,2.3,2.3v4.6c0,1.7-0.6,2.3-2.3,2.3h-33.3
			c-2.3,0-2.3,0-2.3,2.3v19.6c0,2.3,0,2.3,2.3,2.3h27.6c1.7,0,2.3,0.6,2.3,2.3v4.6c0,1.7-0.6,2.3-2.3,2.3h-27.6
			c-2.3,0-2.3,0-2.3,2.3V337.6z"/>
		<path class="st4" d="M606.3,268.4h5.9c1.3,0,2.1,0.6,1.5,2.3l-33.8,76.3c-0.8,2.3-1.5,2.3-3.1,2.3h-5.3c-1.6,0-2.3,0-3.1-2.3
			l-34.7-76.3c-0.6-1.7,0.2-2.3,1.5-2.3h5.9H606.3z M575.3,334l27.1-56.1c0.6-1.6-0.4-2.2-1.4-2.2h-54.6c-1,0-2,0.6-1.4,2.2L573,334
			C573.4,335.4,574.9,335.4,575.3,334z"/>
		<path class="st5" d="M614.9,349.4H609c-1.3,0-2.1-0.6-1.5-2.3l33.8-76.3c0.8-2.3,1.5-2.3,3.1-2.3h5.3c1.6,0,2.3,0,3.1,2.3
			l34.7,76.3c0.6,1.7-0.2,2.3-1.5,2.3h-5.9H614.9z M645.9,283.8l-27.1,56.1c-0.6,1.6,0.4,2.2,1.4,2.2h54.6c1,0,2-0.6,1.4-2.2
			l-27.9-56.1C647.8,282.4,646.3,282.4,645.9,283.8z"/>
	</g>
	<path class="st2" d="M241.4,381v-2.7c0-0.9,0.3-1.2,1.2-1.2h714.9c0.9,0,1.2,0.3,1.2,1.2v2.7c0,0.9-0.3,1.2-1.2,1.2H242.6
		C241.7,382.2,241.4,381.9,241.4,381z"/>
	<g>
		<path class="st2" d="M432.1,427.2c0.2,2.8-1.9,4.7-5.2,4.7c-2,0-3.6-0.5-5-1.3c-0.4-0.2-0.4-0.4-0.2-0.8c0.2-0.4,0.4-0.5,0.9-0.2
			c1.3,0.6,2.7,1.2,4.4,1.2c2.5,0,4.1-1.2,4.1-3c0-4.2-8.4-3.3-8.7-7.8c-0.2-2.5,1.9-4.3,4.7-4.3c1.3,0,2.7,0.4,4.1,1.1
			c0.4,0.2,0.4,0.4,0.2,0.7c-0.2,0.5-0.4,0.5-0.8,0.2c-1.1-0.6-2.2-0.9-3.4-0.9c-2.4,0-3.5,1.4-3.5,2.8
			C423.4,423.2,431.7,422.7,432.1,427.2z"/>
		<path class="st2" d="M472.7,415.6c4.5,0,8.1,3.6,8.1,8.1c0,4.5-3.6,8.1-8.1,8.1c-4.5,0-8.1-3.6-8.1-8.1
			C464.6,419.3,468.2,415.6,472.7,415.6z M472.7,430.7c3.8,0,7-3.1,7-7c0-3.8-3.1-7-7-7s-7,3.1-7,7
			C465.7,427.6,468.9,430.7,472.7,430.7z"/>
		<path class="st2" d="M515.5,426.4c0,3,1.2,4.2,3.6,4.2c0.5,0,0.6,0.1,0.6,0.6s-0.1,0.6-0.6,0.6c-3.5,0-4.7-2-4.7-5.4v-16.4
			c0-0.5,0.1-0.6,0.6-0.6c0.5,0,0.6,0.1,0.6,0.6V426.4z"/>
		<path class="st2" d="M562.2,416.3c0-0.5,0.1-0.6,0.6-0.6s0.6,0.1,0.6,0.6v14.8c0,0.5-0.1,0.6-0.6,0.6s-0.6-0.1-0.6-0.6V430
			c-1,0.9-2.8,1.7-4.4,1.9c-2.9,0.2-6.2-1.7-6.2-5.1v-10.4c0-0.5,0.1-0.6,0.6-0.6c0.5,0,0.6,0.1,0.6,0.6v10.4c0,2.6,2.6,4,4.9,4
			c1.8-0.1,3.6-1,4.5-1.9V416.3z"/>
		<path class="st2" d="M598.2,417.8H597c-0.5,0-0.6-0.1-0.6-0.6s0.1-0.6,0.6-0.6h1.2c0.5,0,0.6-0.1,0.6-0.6v-3.2
			c0-0.5,0.1-0.6,0.6-0.6c0.5,0,0.6,0.1,0.6,0.6v3.2c0,0.5,0.1,0.6,0.6,0.6h2.7c0.5,0,0.6,0.1,0.6,0.6s-0.1,0.6-0.6,0.6h-2.7
			c-0.5,0-0.6,0.1-0.6,0.6v9.4c0,2.2,1.5,2.9,2.6,2.9c0.7,0,1.3-0.3,2-1c0.3-0.3,0.5-0.3,0.8,0c0.3,0.3,0.3,0.5,0,0.9
			c-0.7,0.8-1.7,1.3-2.8,1.3c-2,0-3.7-1.6-3.7-3.8v-9.7C598.8,417.9,598.7,417.8,598.2,417.8z"/>
		<path class="st2" d="M639.1,410.6c0.6,0,1.1,0.5,1.1,1.1c0,0.6-0.5,1.1-1.1,1.1c-0.6,0-1.1-0.5-1.1-1.1
			C638,411.1,638.5,410.6,639.1,410.6z M639.1,431.7c-0.5,0-0.6-0.1-0.6-0.6v-14.8c0-0.5,0.1-0.6,0.6-0.6s0.6,0.1,0.6,0.6v14.8
			C639.6,431.7,639.6,431.7,639.1,431.7z"/>
		<path class="st2" d="M681.4,415.6c4.5,0,8.1,3.6,8.1,8.1c0,4.5-3.6,8.1-8.1,8.1s-8.1-3.6-8.1-8.1
			C673.3,419.3,676.9,415.6,681.4,415.6z M681.4,430.7c3.8,0,7-3.1,7-7c0-3.8-3.1-7-7-7s-7,3.1-7,7
			C674.4,427.6,677.6,430.7,681.4,430.7z"/>
		<path class="st2" d="M723.9,431.7c-0.5,0-0.6-0.1-0.6-0.6v-14.8c0-0.5,0.1-0.6,0.6-0.6c0.5,0,0.6,0.1,0.6,0.6v1.2
			c1-0.9,2.8-1.7,4.4-1.9c2.9-0.2,6.2,1.7,6.2,5.1v10.4c0,0.5-0.1,0.6-0.6,0.6c-0.5,0-0.6-0.1-0.6-0.6v-10.4c0-2.6-2.6-4-4.9-4
			c-1.8,0.1-3.6,1-4.5,1.9v12.5C724.5,431.7,724.4,431.7,723.9,431.7z"/>
		<path class="st2" d="M778.5,427.2c0.2,2.8-1.9,4.7-5.2,4.7c-2,0-3.6-0.5-5-1.3c-0.4-0.2-0.4-0.4-0.2-0.8c0.2-0.4,0.4-0.5,0.9-0.2
			c1.3,0.6,2.7,1.2,4.4,1.2c2.5,0,4.1-1.2,4.1-3c0-4.2-8.4-3.3-8.7-7.8c-0.2-2.5,1.9-4.3,4.7-4.3c1.3,0,2.7,0.4,4.1,1.1
			c0.4,0.2,0.4,0.4,0.2,0.7c-0.2,0.5-0.4,0.5-0.8,0.2c-1.1-0.6-2.2-0.9-3.4-0.9c-2.4,0-3.5,1.4-3.5,2.8
			C769.8,423.2,778.1,422.7,778.5,427.2z"/>
	</g>
</g>
</svg>
