<?xml version="1.0" encoding="UTF-8"?>
<svg width="718px" height="164px" viewBox="0 0 718 164" version="1.1" xmlns="http://www.w3.org/2000/svg" xmlns:xlink="http://www.w3.org/1999/xlink">
    <!-- Generator: Sketch 49.1 (51147) - http://www.bohemiancoding.com/sketch -->
    <title>logo</title>
    <desc>Created with Sketch.</desc>
    <defs></defs>
    <g id="Page-1" stroke="none" stroke-width="1" fill="none" fill-rule="evenodd">
        <g id="logo" fill-rule="nonzero">
            <g id="Group">
                <path d="M7.6,80.7 L2.3,80.7 C0.6,80.7 0,80.1 0,78.4 L0,2.6 C0,0.9 0.6,0.3 2.3,0.3 L7.6,0.3 C9.3,0.3 9.9,0.9 9.9,2.6 L9.9,78.4 C9.9,80.1 9.3,80.7 7.6,80.7 Z" id="Shape" fill="#FFFFFF"></path>
                <path d="M48.3,1.7 L89.5,59.6 C90.1,60.4 90.8,60.1 90.8,59.4 L90.8,2.6 C90.8,0.9 91.4,0.3 93.1,0.3 L98.4,0.3 C100.1,0.3 100.7,0.9 100.7,2.6 L100.7,78.4 C100.7,80.1 100.1,80.7 98.4,80.7 L94.5,80.7 C93.2,80.7 93,80.2 92.3,79.3 L51.1,21.4 C50.5,20.6 49.8,20.9 49.8,21.6 L49.8,78.3 C49.8,80 49.2,80.6 47.5,80.6 L42.2,80.6 C40.5,80.6 39.9,80 39.9,78.3 L39.9,2.6 C39.9,0.9 40.5,0.3 42.2,0.3 L46.1,0.3 C47.3,0.3 47.6,0.8 48.3,1.7 Z" id="Shape" fill="#FFFFFF"></path>
                <path d="M138.2,1.7 L179.4,59.6 C180,60.4 180.7,60.1 180.7,59.4 L180.7,2.6 C180.7,0.9 181.3,0.3 183,0.3 L188.3,0.3 C190,0.3 190.6,0.9 190.6,2.6 L190.6,78.4 C190.6,80.1 190,80.7 188.3,80.7 L184.4,80.7 C183.1,80.7 182.9,80.2 182.2,79.3 L141,21.4 C140.4,20.6 139.7,20.9 139.7,21.6 L139.7,78.3 C139.7,80 139.1,80.6 137.4,80.6 L132.1,80.6 C130.4,80.6 129.8,80 129.8,78.3 L129.8,2.6 C129.8,0.9 130.4,0.3 132.1,0.3 L136,0.3 C137.2,0.3 137.5,0.8 138.2,1.7 Z" id="Shape" fill="#FFFFFF"></path>
                <path d="M246.3,0.3 C268.4,0.3 286.5,18.4 286.5,40.5 C286.5,62.6 268.4,80.7 246.3,80.7 C224.2,80.7 206.1,62.6 206.1,40.5 C206.1,18.4 224.2,0.3 246.3,0.3 Z M246.3,71.6 C263.4,71.6 276.7,57.6 276.7,40.5 C276.7,23.4 263.4,9.4 246.3,9.4 C229.2,9.4 215.9,23.4 215.9,40.5 C215.9,57.6 229.2,71.6 246.3,71.6 Z" id="Shape" fill="#58B5C2"></path>
                <path d="M451.9,0.3 L501.7,0.3 C503.4,0.3 504,0.9 504,2.6 L504,7.2 C504,8.9 503.4,9.5 501.7,9.5 L484,9.5 C481.7,9.5 481.7,9.5 481.7,11.8 L481.7,78.4 C481.7,80.1 481.1,80.7 479.4,80.7 L474.1,80.7 C472.4,80.7 471.8,80.1 471.8,78.4 L471.8,11.8 C471.8,9.5 471.8,9.5 469.5,9.5 L451.8,9.5 C450.1,9.5 449.5,8.9 449.5,7.2 L449.5,2.6 C449.6,0.9 450.2,0.3 451.9,0.3 Z" id="Shape" fill="#FFFFFF"></path>
                <path d="M517,45.4 L517,2.6 C517,0.9 517.6,0.3 519.3,0.3 L524.6,0.3 C526.3,0.3 526.9,0.9 526.9,2.6 L526.9,46.4 C526.9,65.6 536.7,71.6 547.5,71.6 C558.3,71.6 568.1,65.6 568.1,46.4 L568.1,2.6 C568.1,0.9 568.7,0.3 570.4,0.3 L575.7,0.3 C577.4,0.3 578,0.9 578,2.6 L578,45.4 C578,69.9 565.2,80.7 547.5,80.7 C529.8,80.7 517,69.9 517,45.4 Z" id="Shape" fill="#FFFFFF"></path>
                <path d="M600,80.7 C598.3,80.7 597.7,80.1 597.7,78.4 L597.7,2.6 C597.7,0.9 598.3,0.3 600,0.3 L622.9,0.3 C640.6,0.3 649,8.3 649,21.4 C649,28.3 646.6,33.8 641.8,37.5 C648.3,41.5 651.7,48.2 651.7,57 C651.7,72 642.3,80.7 624,80.7 L600,80.7 Z M609.9,33.4 L625.4,33.4 C636.3,33.4 639.3,26.7 639.3,21.5 C639.3,16.2 636.3,9.6 625.4,9.6 L609.9,9.6 C607.6,9.6 607.6,9.6 607.6,11.9 L607.6,31.2 C607.6,33.4 607.6,33.4 609.9,33.4 Z M607.6,69.2 C607.6,71.5 607.6,71.5 609.9,71.5 L624.6,71.5 C637.7,71.5 641.9,65 641.9,57 C641.9,49.1 637.7,42.5 624.6,42.5 L609.9,42.5 C607.6,42.5 607.6,42.5 607.6,44.8 L607.6,69.2 Z" id="Shape" fill="#FFFFFF"></path>
                <path d="M676.8,69.2 C676.8,71.5 676.8,71.5 679.1,71.5 L712.4,71.5 C714.1,71.5 714.7,72.1 714.7,73.8 L714.7,78.4 C714.7,80.1 714.1,80.7 712.4,80.7 L669.2,80.7 C667.5,80.7 666.9,80.1 666.9,78.4 L666.9,2.6 C666.9,0.9 667.5,0.3 669.2,0.3 L712.4,0.3 C714.1,0.3 714.7,0.9 714.7,2.6 L714.7,7.2 C714.7,8.9 714.1,9.5 712.4,9.5 L679.1,9.5 C676.8,9.5 676.8,9.5 676.8,11.8 L676.8,31.4 C676.8,33.7 676.8,33.7 679.1,33.7 L706.7,33.7 C708.4,33.7 709,34.3 709,36 L709,40.6 C709,42.3 708.4,42.9 706.7,42.9 L679.1,42.9 C676.8,42.9 676.8,42.9 676.8,45.2 L676.8,69.2 Z" id="Shape" fill="#FFFFFF"></path>
                <path d="M365,0 L370.9,0 C372.2,0 373,0.6 372.4,2.3 L338.6,78.6 C337.8,80.9 337.1,80.9 335.5,80.9 L330.2,80.9 C328.6,80.9 327.9,80.9 327.1,78.6 L292.4,2.3 C291.8,0.6 292.6,0 293.9,0 L299.8,0 L365,0 Z M334,65.6 L361.1,9.5 C361.7,7.9 360.7,7.3 359.7,7.3 L305.1,7.3 C304.1,7.3 303.1,7.9 303.7,9.5 L331.7,65.6 C332.1,67 333.6,67 334,65.6 Z" id="Shape" fill="#FAD037"></path>
                <path d="M373.6,81 L367.7,81 C366.4,81 365.6,80.4 366.2,78.7 L400,2.4 C400.8,0.1 401.5,0.1 403.1,0.1 L408.4,0.1 C410,0.1 410.7,0.1 411.5,2.4 L446.2,78.7 C446.8,80.4 446,81 444.7,81 L438.8,81 L373.6,81 Z M404.6,15.4 L377.5,71.5 C376.9,73.1 377.9,73.7 378.9,73.7 L433.5,73.7 C434.5,73.7 435.5,73.1 434.9,71.5 L407,15.4 C406.5,14 405,14 404.6,15.4 Z" id="Shape" fill="#FF601C"></path>
            </g>
            <path d="M0.1,112.6 L0.1,109.9 C0.1,109 0.4,108.7 1.3,108.7 L716.2,108.7 C717.1,108.7 717.4,109 717.4,109.9 L717.4,112.6 C717.4,113.5 717.1,113.8 716.2,113.8 L1.3,113.8 C0.4,113.8 0.1,113.5 0.1,112.6 Z" id="Shape" fill="#FFFFFF"></path>
            <g id="Group" transform="translate(180.000000, 141.000000)" fill="#FFFFFF">
                <path d="M10.8,17.8 C11,20.6 8.9,22.5 5.6,22.5 C3.6,22.5 2,22 0.6,21.2 C0.2,21 0.2,20.8 0.4,20.4 C0.6,20 0.8,19.9 1.3,20.2 C2.6,20.8 4,21.4 5.7,21.4 C8.2,21.4 9.8,20.2 9.8,18.4 C9.8,14.2 1.4,15.1 1.1,10.6 C0.9,8.1 3,6.3 5.8,6.3 C7.1,6.3 8.5,6.7 9.9,7.4 C10.3,7.6 10.3,7.8 10.1,8.1 C9.9,8.6 9.7,8.6 9.3,8.3 C8.2,7.7 7.1,7.4 5.9,7.4 C3.5,7.4 2.4,8.8 2.4,10.2 C2.1,13.8 10.4,13.3 10.8,17.8 Z" id="Shape"></path>
                <path d="M51.4,6.2 C55.9,6.2 59.5,9.8 59.5,14.3 C59.5,18.8 55.9,22.4 51.4,22.4 C46.9,22.4 43.3,18.8 43.3,14.3 C43.3,9.9 46.9,6.2 51.4,6.2 Z M51.4,21.3 C55.2,21.3 58.4,18.2 58.4,14.3 C58.4,10.5 55.3,7.3 51.4,7.3 C47.5,7.3 44.4,10.4 44.4,14.3 C44.4,18.2 47.6,21.3 51.4,21.3 Z" id="Shape"></path>
                <path d="M94.2,17 C94.2,20 95.4,21.2 97.8,21.2 C98.3,21.2 98.4,21.3 98.4,21.8 C98.4,22.3 98.3,22.4 97.8,22.4 C94.3,22.4 93.1,20.4 93.1,17 L93.1,0.6 C93.1,0.1 93.2,-2.84217094e-14 93.7,-2.84217094e-14 C94.2,-2.84217094e-14 94.3,0.1 94.3,0.6 L94.2,17 Z" id="Shape"></path>
                <path d="M140.9,6.9 C140.9,6.4 141,6.3 141.5,6.3 C142,6.3 142.1,6.4 142.1,6.9 L142.1,21.7 C142.1,22.2 142,22.3 141.5,22.3 C141,22.3 140.9,22.2 140.9,21.7 L140.9,20.6 C139.9,21.5 138.1,22.3 136.5,22.5 C133.6,22.7 130.3,20.8 130.3,17.4 L130.3,7 C130.3,6.5 130.4,6.4 130.9,6.4 C131.4,6.4 131.5,6.5 131.5,7 L131.5,17.4 C131.5,20 134.1,21.4 136.4,21.4 C138.2,21.3 140,20.4 140.9,19.5 L140.9,6.9 Z" id="Shape"></path>
                <path d="M176.9,8.4 L175.7,8.4 C175.2,8.4 175.1,8.3 175.1,7.8 C175.1,7.3 175.2,7.2 175.7,7.2 L176.9,7.2 C177.4,7.2 177.5,7.1 177.5,6.6 L177.5,3.4 C177.5,2.9 177.6,2.8 178.1,2.8 C178.6,2.8 178.7,2.9 178.7,3.4 L178.7,6.6 C178.7,7.1 178.8,7.2 179.3,7.2 L182,7.2 C182.5,7.2 182.6,7.3 182.6,7.8 C182.6,8.3 182.5,8.4 182,8.4 L179.3,8.4 C178.8,8.4 178.7,8.5 178.7,9 L178.7,18.4 C178.7,20.6 180.2,21.3 181.3,21.3 C182,21.3 182.6,21 183.3,20.3 C183.6,20 183.8,20 184.1,20.3 C184.4,20.6 184.4,20.8 184.1,21.2 C183.4,22 182.4,22.5 181.3,22.5 C179.3,22.5 177.6,20.9 177.6,18.7 L177.6,9 C177.5,8.5 177.4,8.4 176.9,8.4 Z" id="Shape"></path>
                <path d="M217.8,1.2 C218.4,1.2 218.9,1.7 218.9,2.3 C218.9,2.9 218.4,3.4 217.8,3.4 C217.2,3.4 216.7,2.9 216.7,2.3 C216.7,1.7 217.2,1.2 217.8,1.2 Z M217.8,22.3 C217.3,22.3 217.2,22.2 217.2,21.7 L217.2,6.9 C217.2,6.4 217.3,6.3 217.8,6.3 C218.3,6.3 218.4,6.4 218.4,6.9 L218.4,21.7 C218.3,22.3 218.3,22.3 217.8,22.3 Z" id="Shape"></path>
                <path d="M260.1,6.2 C264.6,6.2 268.2,9.8 268.2,14.3 C268.2,18.8 264.6,22.4 260.1,22.4 C255.6,22.4 252,18.8 252,14.3 C252,9.9 255.6,6.2 260.1,6.2 Z M260.1,21.3 C263.9,21.3 267.1,18.2 267.1,14.3 C267.1,10.5 264,7.3 260.1,7.3 C256.2,7.3 253.1,10.4 253.1,14.3 C253.1,18.2 256.3,21.3 260.1,21.3 Z" id="Shape"></path>
                <path d="M302.6,22.3 C302.1,22.3 302,22.2 302,21.7 L302,6.9 C302,6.4 302.1,6.3 302.6,6.3 C303.1,6.3 303.2,6.4 303.2,6.9 L303.2,8.1 C304.2,7.2 306,6.4 307.6,6.2 C310.5,6 313.8,7.9 313.8,11.3 L313.8,21.7 C313.8,22.2 313.7,22.3 313.2,22.3 C312.7,22.3 312.6,22.2 312.6,21.7 L312.6,11.3 C312.6,8.7 310,7.3 307.7,7.3 C305.9,7.4 304.1,8.3 303.2,9.2 L303.2,21.7 C303.2,22.3 303.1,22.3 302.6,22.3 Z" id="Shape"></path>
                <path d="M357.2,17.8 C357.4,20.6 355.3,22.5 352,22.5 C350,22.5 348.4,22 347,21.2 C346.6,21 346.6,20.8 346.8,20.4 C347,20 347.2,19.9 347.7,20.2 C349,20.8 350.4,21.4 352.1,21.4 C354.6,21.4 356.2,20.2 356.2,18.4 C356.2,14.2 347.8,15.1 347.5,10.6 C347.3,8.1 349.4,6.3 352.2,6.3 C353.5,6.3 354.9,6.7 356.3,7.4 C356.7,7.6 356.7,7.8 356.5,8.1 C356.3,8.6 356.1,8.6 355.7,8.3 C354.6,7.7 353.5,7.4 352.3,7.4 C349.9,7.4 348.8,8.8 348.8,10.2 C348.5,13.8 356.8,13.3 357.2,17.8 Z" id="Shape"></path>
            </g>
        </g>
    </g>
</svg>