<?xml version="1.0" encoding="utf-8"?>
<!-- Generator: Adobe Illustrator 20.0.0, SVG Export Plug-In . SVG Version: 6.00 Build 0)  -->
<svg version="1.1" id="Layer_1" xmlns="http://www.w3.org/2000/svg" xmlns:xlink="http://www.w3.org/1999/xlink" x="0px" y="0px"
	 viewBox="0 0 500 500" style="enable-background:new 0 0 500 500;" xml:space="preserve">
<style type="text/css">
	.st0{fill-rule:evenodd;clip-rule:evenodd;}
</style>
<path class="st0" d="M470,499.1H30c-16.5,0-30-13.5-30-30v-6c0-16.5,13.5-30,30-30h440c16.5,0,30,13.5,30,30v6
	C500,485.6,486.5,499.1,470,499.1z"/>
<path class="st0" d="M470,283.5H30c-16.5,0-30-13.5-30-30v-6c0-16.5,13.5-30,30-30h440c16.5,0,30,13.5,30,30v6
	C500,270,486.5,283.5,470,283.5z"/>
<path class="st0" d="M470,68H30C13.5,68,0,54.5,0,38v-6C0,15.5,13.5,2,30,2h440c16.5,0,30,13.5,30,30v6C500,54.5,486.5,68,470,68z"
	/>
</svg>
